<svg width="32" height="32" viewBox="0 0 32 32" fill="none" xmlns="http://www.w3.org/2000/svg">
<rect width="32" height="32" rx="16" fill="#3D6BF4"/>
<path d="M22.667 9.33334H9.33366C8.41699 9.33334 7.67533 10.0833 7.67533 11L7.66699 21C7.66699 21.9167 8.41699 22.6667 9.33366 22.6667H22.667C23.5837 22.6667 24.3337 21.9167 24.3337 21V11C24.3337 10.0833 23.5837 9.33334 22.667 9.33334ZM22.3337 12.875L16.442 16.5583C16.1753 16.725 15.8253 16.725 15.5587 16.5583L9.66699 12.875C9.45866 12.7417 9.33366 12.5167 9.33366 12.275C9.33366 11.7167 9.94199 11.3833 10.417 11.675L16.0003 15.1667L21.5837 11.675C22.0587 11.3833 22.667 11.7167 22.667 12.275C22.667 12.5167 22.542 12.7417 22.3337 12.875Z" fill="white"/>
</svg>
