<svg width="20" height="20" viewBox="0 0 20 20" fill="none" xmlns="http://www.w3.org/2000/svg">
<path d="M16.667 3.33334H3.33366C2.41699 3.33334 1.67533 4.08334 1.67533 5.00001L1.66699 15C1.66699 15.9167 2.41699 16.6667 3.33366 16.6667H16.667C17.5837 16.6667 18.3337 15.9167 18.3337 15V5.00001C18.3337 4.08334 17.5837 3.33334 16.667 3.33334ZM16.3337 6.87501L10.442 10.5583C10.1753 10.725 9.82533 10.725 9.55866 10.5583L3.66699 6.87501C3.45866 6.74168 3.33366 6.51668 3.33366 6.27501C3.33366 5.71668 3.94199 5.38334 4.41699 5.67501L10.0003 9.16668L15.5837 5.67501C16.0587 5.38334 16.667 5.71668 16.667 6.27501C16.667 6.51668 16.542 6.74168 16.3337 6.87501Z" fill="white"/>
</svg>
