<svg width="32" height="32" viewBox="0 0 32 32" fill="none" xmlns="http://www.w3.org/2000/svg">
<circle cx="16" cy="16" r="16" fill="#0A66C2"/>
<path d="M24.666 23.3334H21.3532V18.1363C21.3532 16.897 21.3311 15.3017 19.6303 15.3017C17.9048 15.3017 17.6408 16.6519 17.6408 18.0461V23.333H14.3281V12.6458H17.5083V14.1063H17.5529C18.2004 12.9972 19.4089 12.3323 20.6907 12.38C24.0483 12.38 24.6674 14.5924 24.6674 17.4706L24.666 23.3334Z" fill="white"/>
<path d="M10.5898 11.1849C10.5896 11.1849 10.5895 11.1849 10.5894 11.1849C9.53481 11.1849 8.66699 10.3156 8.66699 9.25916C8.66699 8.20269 9.53481 7.33334 10.5894 7.33334C11.644 7.33334 12.5117 8.20249 12.5119 9.25876C12.5119 9.25886 12.5119 9.25896 12.5119 9.25916C12.5119 10.3154 11.6443 11.1848 10.5898 11.1849Z" fill="white"/>
<path d="M12.2459 23.3333H8.92969V12.6458H12.2459V23.3333Z" fill="white"/>
</svg>
