<svg width="32" height="32" viewBox="0 0 32 32" fill="none" xmlns="http://www.w3.org/2000/svg">
<path d="M15.9997 2.88165C10.3997 2.88165 5.33301 7.17499 5.33301 13.815C5.33301 18.055 8.59967 23.0417 15.1197 28.7883C15.6263 29.2283 16.3863 29.2283 16.893 28.7883C23.3997 23.0417 26.6663 18.055 26.6663 13.815C26.6663 7.17499 21.5997 2.88165 15.9997 2.88165ZM15.9997 16.215C14.533 16.215 13.333 15.015 13.333 13.5483C13.333 12.0817 14.533 10.8817 15.9997 10.8817C17.4663 10.8817 18.6663 12.0817 18.6663 13.5483C18.6663 15.015 17.4663 16.215 15.9997 16.215Z" fill="#FDAEA7"/>
</svg>
